<svg width="91" height="90" viewBox="0 0 91 90" fill="none" xmlns="http://www.w3.org/2000/svg">
<g filter="url(#filter0_d_98_129)">
<circle cx="43.582" cy="41" r="41" fill="url(#paint0_linear_98_129)"/>
</g>
<path d="M27.582 30C27.582 28.8954 28.4775 28 29.582 28H58.582C59.6866 28 60.582 28.8954 60.582 30V51C60.582 52.1046 59.6866 53 58.582 53H29.582C28.4775 53 27.582 52.1046 27.582 51V30Z" fill="white" stroke="white" stroke-width="6"/>
<path d="M39.4288 62.5573C38.7458 64.2004 36.4183 64.2004 35.7352 62.5573L30.9383 51.0177C30.3908 49.7005 31.3587 48.25 32.7851 48.25H42.379C43.8054 48.25 44.7733 49.7005 44.2257 51.0177L39.4288 62.5573Z" fill="white"/>
<defs>
<filter id="filter0_d_98_129" x="0.582031" y="0" width="90" height="90" filterUnits="userSpaceOnUse" color-interpolation-filters="sRGB">
<feFlood flood-opacity="0" result="BackgroundImageFix"/>
<feColorMatrix in="SourceAlpha" type="matrix" values="0 0 0 0 0 0 0 0 0 0 0 0 0 0 0 0 0 0 127 0" result="hardAlpha"/>
<feOffset dx="2" dy="4"/>
<feGaussianBlur stdDeviation="2"/>
<feComposite in2="hardAlpha" operator="out"/>
<feColorMatrix type="matrix" values="0 0 0 0 0 0 0 0 0 0 0 0 0 0 0 0 0 0 0.25 0"/>
<feBlend mode="normal" in2="BackgroundImageFix" result="effect1_dropShadow_98_129"/>
<feBlend mode="normal" in="SourceGraphic" in2="effect1_dropShadow_98_129" result="shape"/>
</filter>
<linearGradient id="paint0_linear_98_129" x1="14.582" y1="12" x2="97.082" y2="148" gradientUnits="userSpaceOnUse">
<stop stop-color="#1092CA"/>
<stop offset="1" stop-color="#CA1010"/>
</linearGradient>
</defs>
</svg>
